# xmcd
#
# Track frame offsets:
# 150
# 11396
# 17294
# 30925
# 36739
# 42447
# 54783
# 64437
# 70235
# 78480
# 92373
# 110520
# 119460
# 127164
# 141163
# 149627
#
# Disc length: 2525 seconds
#
# Revision: 0
# Processed by: cddbd v1.5PL3 Copyright (c) Steve Scherf et al.
# Submitted via: Axialis_AX_CDPlayer 2.6
#
DISCID=de09db10
DTITLE=Wilolie Neslon - The Demo Sessions
DYEAR=1900
DGENRE=
TTITLE0=Opportunity to cry
TTITLE1=Three days
TTITLE2=Undo the right
TTITLE3=What do you think of her now
TTITLE4=I've just destroyed the world
TTITLE5=Permanaently loeley
TTITLE6=Are your sure
TTITLE7=Darkeness on the face
TTITLE8=Things to remember
TTITLE9=A moment isn't very long
TTITLE10=Crazy
TTITLE11=Local memory
TTITLE12=I gotta get drunk
TTITLE13=Something to think about
TTITLE14=I'm still here
TTITLE15=Untitled
EXTD=
EXTT0=
EXTT1=
EXTT2=
EXTT3=
EXTT4=
EXTT5=
EXTT6=
EXTT7=
EXTT8=
EXTT9=
EXTT10=
EXTT11=
EXTT12=
EXTT13=
EXTT14=
EXTT15=
PLAYORDER=
